<svg width="384" height="384" viewBox="0 0 384 384" fill="none" xmlns="http://www.w3.org/2000/svg">
<g clip-path="url(#clip0_52_44)">
<path d="M229.8 0L238.04 5.6L272.19 38.12C279.29 32.39 285.14 25.19 293.19 20.35C319.12 4.76 352.22 11.88 369.63 36.44C372.74 40.82 380.35 52.26 370.7 53.76C365.16 54.62 361.15 43.16 357.43 38.91C343.62 23.15 320.6 19.03 301.9 28.31C293.7 32.38 287.95 39.87 281.46 46.05L290.7 54.58C297.64 48.16 302.82 40.9 312.3 37.96C344.72 27.89 369.11 64.68 348.05 90.92C345.72 93.82 342.28 96.3 339.85 99.19L348.55 107.72C356.77 101.66 363.93 92.64 366.81 82.72C368.6 76.55 367.01 66.36 376.12 68.12C383.64 69.57 376.99 88.37 374.91 93.07C370.98 101.96 364.62 108.3 357.85 114.99C367.49 126.31 383.94 134.8 374.59 152.64L268.73 259.36C260.63 266.02 249.06 265.22 241.41 258.22C231.51 249.17 222.84 236.19 212.81 226.94C193.96 221.62 173.87 218.81 155.08 213.56C153.01 212.98 150.18 212.56 148.57 211.09C144.5 207.41 147.94 201.34 152.99 201.38L198.36 211.81L164.89 175.28L107.05 178.89L105.87 190.15C111.03 193.76 138 193 131.78 203.99C130.06 207.03 127.08 206.74 124.08 206.37C119.94 205.86 103.32 202.15 99.89 200.63C96.78 199.25 94.53 196.08 94.3 192.7C94.07 189.32 95.41 178.5 96.15 175.09C97.16 170.4 100.57 168.18 105.17 167.65L154.95 164.65C155.29 163.35 154.41 163.15 153.84 162.4C143.25 148.6 126.23 135.51 116.04 121.61C111.64 115.61 112.4 110.17 117.15 104.76L163.14 58.63C163.46 56.8 149.88 45.91 148.32 42.92C145.4 37.31 150.2 32.28 155.7 34.8C158.51 36.09 169.69 50.43 171.7 50.07L217.82 4.11L224.57 0H229.81H229.8ZM227.18 11.24L179.66 58.76L188.25 67.35L235.77 19.83L227.18 11.24ZM244.4 27.71L196.92 75.33L206.21 85.13C222.05 75.7 242.37 87.35 241.82 105.94C241.27 124.53 219.58 135.16 204.73 124.26C194.45 116.72 193.03 103.92 198.02 92.81L188.37 83.89L141.55 131.26L250.8 251.11C253.86 253.01 257.07 253.13 260.29 251.67L364.93 146.72C367.22 142.37 365.5 137.75 361.95 134.72L244.4 27.71ZM321.74 47.33C312.05 47.7 305.02 55.27 299.47 62.4C303.02 65.82 329.73 91.8 331.83 91.24C334.48 90.53 341.82 80.55 342.96 77.6C348.73 62.71 337.77 46.73 321.74 47.33ZM171.79 66.63L124.27 114.15L132.86 122.74L180.38 75.22L171.79 66.63ZM206.6 101.8C203.89 113.36 217.14 122.33 226.31 114.41C236.22 105.84 227.2 89.75 214.83 93.58C223.08 101.09 214.49 109.54 206.6 101.81V101.8Z" fill="black"/>
<path d="M81.59 317.38C62.66 321.1 43.18 311.07 35.58 293.4C29.68 279.68 29.9 270.51 46.87 268.82C64.02 267.11 78.03 275.17 87.56 288.94C95.45 272.89 117.5 264.81 134.31 270.27C142.49 272.93 142.74 277.78 141.24 285.35C136.91 307.21 114.7 321.74 92.81 317.39V327.87C100.03 328.34 106.09 333.5 110.39 338.92C130.82 330.15 150.26 352.81 139.22 372.04H165.04C165.51 372.04 168.46 374.36 168.77 375.04C170.64 379.14 167.8 382.97 163.56 383.28L10.79 383.31C5.75 383.37 3.89 378.77 5.72 374.45C5.94 373.93 8.4 372.03 8.59 372.03H35.16C23.93 352.56 43.29 330.15 64.01 338.92C68.1 333.2 74.34 328.37 81.57 327.86V317.38H81.59ZM80.8 306.12C79.95 288.48 61.06 276.23 44.24 280.78C44.99 298.57 63.99 310.2 80.8 306.12ZM130.18 280.76C113.16 276.38 95.32 287.96 93.13 305.44C109.62 311.18 129.28 298.27 130.18 280.76ZM70.13 350.83C65.86 354.73 63.4 350.57 59.87 349.2C43.53 342.84 35.72 367.94 52.95 371.84C73.98 370.17 100.42 374.72 120.82 371.95C132.1 370.42 135.14 354.67 124.66 349.53C115.17 344.87 112.06 353.24 107.02 352.27C102.85 351.47 103.34 348.3 101.38 345.87C95.43 338.48 87.66 335.8 78.83 340.45C72.59 343.74 73.48 347.77 70.13 350.83Z" fill="black"/>
<path d="M73.16 218.7C80.79 217.14 82.61 228.27 75.8 229.67C68.17 231.23 66.35 220.1 73.16 218.7Z" fill="black"/>
<path d="M97.86 218.7C105.49 217.14 107.31 228.27 100.5 229.67C92.87 231.23 91.05 220.1 97.86 218.7Z" fill="black"/>
<path d="M97.85 240.43C103.26 239.24 107.68 244.34 104.05 248.9C97.07 257.68 89.41 242.29 97.85 240.43Z" fill="black"/>
<path d="M79.14 249.8C74.98 253.94 67.47 249.3 70.01 243.29C73.2 235.75 85.57 243.4 79.14 249.8Z" fill="black"/>
</g>
<defs>
<clipPath id="clip0_52_44">
<rect width="384" height="384" fill="white"/>
</clipPath>
</defs>
</svg>
