<svg width="384" height="384" viewBox="0 0 384 384" fill="none" xmlns="http://www.w3.org/2000/svg">
<g clip-path="url(#clip0_52_60)">
<path d="M186.39 0V26.95C198.41 15.24 212.97 5.78 229.05 0.75L232.06 10.15L231.29 11.6C219.67 15.94 208.46 22.16 199.1 30.31C197.43 31.77 186.39 42.87 186.39 43.79V62.88L197.23 47.9C208.72 34.6 236.25 17.22 254.13 17.22H266.48L265.78 28.12C237.43 27.92 210.97 43.39 196.87 67.75C202.03 69.19 207.47 69.05 212.81 68.71C226.66 53.73 245.54 43.22 266.49 44.16L265.78 55.07C250.25 55.36 235.21 61.72 224.57 72.99L254.88 95.07H315.14C314.68 97.35 316.3 105.41 313.91 106.19L251.15 106.28C239.58 99.85 228.08 85.17 215.43 81.37C207 78.83 181.25 78.19 172.89 80.45C168.01 81.77 163.54 88.88 163.97 93.86C165.56 112.3 195.13 104.7 207.32 106.33C210.32 124.63 222.85 139.93 239.97 146.71C240.46 147.49 237.66 157.05 235.75 156.91C232.99 156.71 221.97 149.85 219.39 147.78C215.63 144.77 212.78 140.57 208.85 137.74V199.87C222.12 197.36 232.73 188.12 245.2 183.45L384.01 183.4V193.88C382.76 194.73 381.35 194.62 379.93 194.66C336.1 195.98 292.05 193.57 248.2 194.68C235.01 199.73 223.23 209.54 208.89 211.14L208.85 252.28C232.97 251.98 253.77 267.48 264.2 288.57L285.21 288.96V265.38C285.21 264.74 283.49 260.3 282.99 259.37C279.27 252.4 269.54 251.92 262.71 252.73L260.5 241.81C270.76 240.41 282.87 241.87 290.17 249.99C298.59 242.62 309.41 240.01 320.38 241.81L318.88 253.04C309.14 251.02 297.42 253.78 296.39 265.36C295.63 273.99 296.91 283.84 296.54 292.59C317.28 300.88 334.94 319.46 333.08 343.22C332.4 351.87 328.31 355.07 336.81 361.97C348.54 371.48 369.52 372.32 383.99 372.05V382.53C382.74 383.38 381.33 383.26 379.91 383.31C358.61 384.05 318.26 377.91 320.38 349.23C321.04 340.27 322.99 337.84 319.63 328.25C311.4 304.76 278.5 293.85 256.23 302.3C244.43 306.78 237.89 315.28 232.07 326.03C219.91 320.94 208.21 325.97 206.64 339.54L196.11 339.87C194.95 322.78 211.17 310.88 227.4 312.76C232.83 302.93 242.33 296.13 252.31 291.51C245.36 274.89 226.91 263.23 208.84 263.51V275.86C208.84 276.37 213.11 281.31 213.93 282.75C217.63 289.17 219.84 295.68 220.07 303.19H208.84C206.87 266.51 154.06 266.33 152.7 303.19H141.47C141.13 295.83 143.83 288.23 147.59 281.99C148.45 280.56 152.7 276.27 152.7 275.87V242.19C150.76 240.48 145.98 240.82 143.32 241.04C134.45 241.78 126.9 246.96 121.53 253.71L112.28 248.53C115.96 241.68 122.42 236.31 129.52 233.23C131.24 232.49 138.31 229.83 139.6 229.83H152.7V211.86C141.92 212.55 130.89 209.49 126.66 198.61C123.45 190.36 125.76 184.48 129.56 177.12C120.28 170.51 119.42 158.27 124.91 148.71C110.39 138.87 110.54 118.72 124.91 108.84C117.26 94.34 122.71 81.05 138.14 76.39C138.97 76.14 139.48 76.9 139.23 75.26C128.38 63.1 112.48 54.54 95.82 55.41V44.18C115.84 43.36 134.9 53.3 147.85 68.12C149.13 69.58 153.05 75.92 153.95 76.23C159 77.97 162.43 73.18 166.17 70.75C152.17 45.45 125.41 27.39 95.82 28.46V17.23H106.67C123.4 17.23 149.97 32.88 161.32 44.92L175.16 63.64V43.8C162.91 28.8 146.9 17.83 128.86 10.89C130.28 7.96 130.73 4.56 132.31 1.7C132.64 1.09 132.21 0.38 133.47 0.87C149.13 6.43 163.03 15.77 175.16 26.96V0H186.4H186.39ZM142.6 106.29C146.89 106.81 152.05 105.91 156.45 106.29C153.94 100.23 151.49 94.28 153.45 87.58C146.32 88.31 137.27 84.73 133.62 92.81C130.54 99.62 135.84 105.46 142.6 106.29ZM133.02 117.68C123.03 120.83 122.73 136.51 132.48 139.62C138.2 141.44 157.04 141.33 163.46 140.64C179.28 138.94 179.47 120.76 168.44 117.88C159.38 115.52 142.88 118.79 133.02 117.69V117.68ZM197.61 117.52H184.88C188.64 126.75 188.26 137.87 180.4 144.84C190 152.9 190.14 165.83 182.71 175.43C190.8 183.1 190.95 193.54 186.36 203.21L186.38 264.98L197.6 267.98V117.52H197.61ZM139.01 152.11C131.37 153.84 130.45 166.44 138.46 169.56C143 171.32 161.04 171.16 166.45 170.58C179.95 169.12 179.26 153.98 170.11 152.13C166.56 151.41 142.38 151.35 139 152.12L139.01 152.11ZM142.75 182.05C135.11 183.78 134.19 196.38 142.2 199.5C147.12 201.41 169.18 201.38 173.78 198.86C180.33 195.28 179.45 184.13 172.18 182.25C169.05 181.44 145.95 181.33 142.75 182.05ZM175.16 211.09L163.93 211.84V267.98L175.16 263.86V211.09Z" fill="black"/>
<path d="M384 95.06V105.54L326.36 106.29V95.06H384Z" fill="black"/>
<path d="M53.15 316.63C60.7 315.16 69.04 313.81 76.12 310.78C93.1 303.49 104.17 287.02 106.96 269.01C107.27 267.04 106.73 264.88 107.05 263.11C107.71 259.42 115.67 262.75 118.32 263.17C118.3 286.4 104.74 308.88 84.08 319.49C72.38 325.5 58.71 326.07 46.43 331.24C24.06 340.66 12.08 358.82 11.98 383.25H0.75C0.81 359.51 10.98 339.06 31.21 326.5C33.13 325.31 40.53 322.17 41.19 321.51C41.69 321.02 41.79 320.66 41.92 319.99C42.69 315.85 42.35 300.72 41.95 296.01C40.84 283.16 30.73 280.61 19.55 282.11L17.22 270.97C28.22 270.27 40.06 270.62 47.53 279.93C49.66 277.82 51.68 275.51 54.4 274.09C55.59 273.47 62.41 270.96 63.25 270.96H77.85L75.55 282.13C69.25 281.13 59.84 281.68 55.82 287.48C55.1 288.52 53.15 292.85 53.15 293.79V316.62V316.63Z" fill="black"/>
<path d="M276.21 317.38H264.98V328.61H276.21V317.38Z" fill="black"/>
<path d="M298.67 333.85H287.44V345.08H298.67V333.85Z" fill="black"/>
</g>
<defs>
<clipPath id="clip0_52_60">
<rect width="384" height="384" fill="white"/>
</clipPath>
</defs>
</svg>
