<svg width="384" height="384" viewBox="0 0 384 384" fill="none" xmlns="http://www.w3.org/2000/svg">
<g clip-path="url(#clip0_108_309)">
<path d="M35.93 324.87C26.05 300.35 43.8 275.71 69.65 275.13C75.45 255.34 95.21 244.32 115.11 250.56C117.84 251.42 120.01 253.21 122.76 253.76C118.36 237.02 118.85 219.65 122.76 202.87C85.44 202.6 56.79 166.68 63.1 130.1C65.07 118.68 66.28 116.73 78.25 117.5C102.49 119.06 123.65 136.27 132.31 158.5L136.61 174.4C141.73 168.06 146.9 161.61 153.51 156.72C137.29 126.7 148.38 87.2899 178.4 70.9899C182.52 68.7499 194.21 63.9599 198.55 64.5199C203.12 65.1099 207.54 76.2799 208.87 80.4499C218.09 109.47 204.42 143.15 176.93 156.34C172.86 158.29 167.03 159.22 163.66 161.03C160.29 162.84 151.69 171.61 148.99 174.8C129.16 198.22 124.12 232.03 135.5 260.48C149.19 246.09 170.17 245.2 185.63 257.49C191.53 232.26 205.57 209.47 215.02 185.44C217.91 179.7 222.57 182.57 227.38 183.93C239.64 187.41 251.48 192.62 263.47 196.85C266.98 189.63 268.06 178.43 275.45 174.57L324.57 59.9499C337.47 38.5299 368.63 50.0099 364.36 75.0299L311.19 190.35L311.21 197.79L303.1 214.36C308.99 217.46 315.08 220.37 320.88 223.66C324.26 225.58 341.99 235.48 342.68 237.79C343.02 238.93 342.94 240.15 342.8 241.32C332.56 263.68 323.99 287 311.7 308.3L297.92 324.84H358.18C358.4 324.84 360.48 327 360.66 327.62C361.85 331.62 359.21 334.63 355.23 334.62L25.06 334.59C16.95 333.65 20.72 324.84 22.83 324.84H35.93V324.87ZM303.9 183.39L354.44 73.3699C357.55 59.9599 340.5 53.0599 333.21 64.8599L285.94 175.9C292.66 176.54 298.14 180.43 303.9 183.39ZM195.02 75.0299C163.05 83.2599 145.72 121.94 162.4 150.89C194.49 143.67 212.46 103.27 195.02 75.0299ZM72.61 132.87V148.59C72.61 150.98 75.61 159.05 76.75 161.66C84.76 180.01 104.56 193.92 125 193.12C130.77 168.4 117.77 142.1 94.59 131.85C92.45 130.9 89.13 129.32 86.84 129.87C93.11 135.87 99.01 142.28 103.91 149.47C106.77 153.67 118.03 172.83 117.39 176.87C116.75 180.91 110.96 182.89 108.5 179.87C106.63 177.57 103.25 167.91 101.18 164.18C94.34 151.85 84.98 140.99 74.1 132.11L72.61 132.87ZM229.8 324.87H280.33C294 316.68 303.03 305.02 310.03 290.94C317.9 275.1 324.29 257.63 331.66 241.48L299.61 223.92C295.25 223.27 296.08 235.23 288.63 234.27C283.63 233.63 284.3 229.64 285.59 226.07C287.27 221.4 301.19 197.89 300.8 195.85C295.6 188.76 288.3 185.63 279.65 185.02L277.81 187.61C267.44 216.83 246.9 243.64 250.02 276.21C250.49 276.76 255.35 272.69 256.01 272.11C262.92 266.1 268.59 259.12 273.53 251.45C276.27 247.19 279.45 236.15 285.47 239.62C291.08 242.85 285.21 251.28 282.8 255.49C277.07 265.5 267.38 276.28 258.18 283.27C253.72 286.66 243.92 295.05 241.21 286.14C239.13 279.31 239.48 265.21 240.37 257.98C242.69 239.03 251.8 223.12 258.99 205.87L222.38 193.19C215.89 210.77 205.74 227.88 199.28 245.33C197.97 248.88 196.53 253.05 195.71 256.73C194.44 262.47 192.49 270.71 196.59 275.36C222.15 275.62 239.68 300.94 229.79 324.87H229.8ZM181.9 290.45C185.06 295.57 192.31 312.12 184.68 315.33C177.57 318.32 177.8 305.86 176.28 301.67C173.99 295.36 168.13 289.25 161.67 287.09C156.72 285.43 147.32 286.93 148.24 279.65C148.99 273.68 156.91 275.47 161.11 276.42C166.59 277.66 170.89 280.61 175.55 283.51C176.67 281.12 184.77 278.53 185.32 277.75C187.34 274.86 180.35 266.55 178.1 264.68C166.64 255.17 149.88 257.66 141.16 269.53C136.29 276.16 139.13 276.26 139.27 282.63C139.4 288.65 132.45 291.33 129.6 286.24C128.25 283.84 128.65 278.38 127.17 274.45C121.01 258.08 99.15 253.85 86.45 265.72C84.47 267.57 78.68 275.24 80.43 277.75L90.9 282.98C95.54 278.72 119.65 269.23 117.53 281.79C116.75 286.41 107.95 285.79 104.07 287.09C97.62 289.25 91.75 295.36 89.46 301.67C87.86 306.08 88.15 318.95 80.58 315.03C73.69 311.46 80.85 295.54 83.84 290.44C59.82 275.02 32.93 299.71 47.31 324.7L216.68 324.84C219.33 324.35 221.25 319.61 221.8 317.24C227.37 293.16 201.8 277.29 181.89 290.45H181.9Z" fill="black"/>
</g>
<defs>
<clipPath id="clip0_108_309">
<rect width="384" height="384" fill="white"/>
</clipPath>
</defs>
</svg>
