<svg width="384" height="384" viewBox="0 0 384 384" fill="none" xmlns="http://www.w3.org/2000/svg">
<g clip-path="url(#clip0_52_75)">
<path d="M297.073 0C305.498 1.83459 312.674 4.1471 319.758 9.119C337.711 21.7299 344.579 44.1381 338.282 65.0509C359.958 73.6535 370.194 97.9348 363.026 120.004C374.573 128.868 381.371 140.585 383.869 154.946V166.925C380.462 186.442 367.173 203 347.771 208.288C334.312 211.957 321.701 210.223 309.56 203.455L297.065 193.865V261.984C303.663 263.834 310.925 268.683 314.347 274.665C341.118 264.12 368.198 285.95 365.315 314.239C375.421 319.689 381.233 329.641 383.869 340.586C383.584 343.94 384.262 347.802 383.869 351.07C382.173 365.261 366.24 383.26 351.317 383.26H25.4453V370.534H38.1641V333.857H13.4665V296.433H38.1641V259.757H13.4665V222.332H38.1641V206.985L62.484 183.382L87.5516 207.733V222.332H99.5227V172.93H75.2028C60.6571 172.93 38.1641 152.001 38.1641 137.371V123.527H72.9597C75.6345 123.527 83.5433 126.171 86.3183 127.373C91.2516 129.516 95.4141 132.861 99.5227 136.245V80.1053H74.4551C60.2486 80.1053 38.1641 58.7455 38.1641 44.5467V30.7024H72.212C74.6016 30.7024 79.9897 33.6085 81.963 32.2826L105.142 2.98314C106.429 2.98314 107.632 4.74065 108.48 5.63482C115.972 13.5667 122.154 24.2582 129.809 32.2518C131.304 33.1845 137.502 30.687 139.552 30.687H173.6V43.0358C173.6 58.0517 152.433 80.0899 137.309 80.0899H112.242V104.795L124.698 96.6706C126.517 95.8535 135.189 92.8242 136.561 92.8242H173.6V105.173C173.6 121.422 151.153 142.227 135.066 142.227H112.242V194.629L124.482 183.451L148.902 207.725V222.325H161.621V207.725L186.589 183.451L211.009 207.725V222.325H235.706V259.749H211.009V288.193L218.879 279.976C229.077 271.92 242.644 269.747 254.8 274.472C262.801 265.9 272.784 259.171 285.086 259.749V193.881C262.763 217.176 224.868 215.541 206.661 188.123C191.584 165.422 198.097 136.222 219.126 119.981C212.288 97.0946 222.34 74.6401 243.877 64.6655C236.261 39.5979 249.119 12.3103 273.67 3.18356C276.599 2.09668 282.157 0.323751 285.086 0.00770837H297.057L297.073 0ZM285.102 135.482V59.5086L269.431 48.2929L276.491 38.2489L297.073 51.6538V68.1188L306.785 62.8772L312.728 72.8903L297.073 84.2139V110.037L318.317 94.3504L325.455 103.57L314.301 113.405L326.241 125.384L317.646 133.979L304.82 121.384L297.073 126.88V160.935L328.122 141.526L355.124 154.938L349.844 166.1L328.315 155.825L300.241 174.756C317.808 214.308 375.582 199.508 371.15 155.331C369.678 140.685 358.601 131.189 346.56 124.652C362.062 102.151 347.709 75.118 321.023 73.3528C329.032 58.5219 331.807 42.8431 321.639 28.2049C299.879 -3.13731 250.306 14.9388 254.515 54.9298C255.278 62.1603 259.494 66.739 261.159 73.3528C241.087 75.5112 227.343 89.4016 229.81 110.33C230.48 116.026 233.972 120.459 235.714 125.747C207.309 135.613 201.713 174.471 227.25 191.491C251.1 207.386 282.396 191.638 285.009 163.464C285.287 160.434 285.765 152.525 284.046 150.398L261.198 132.037L246.467 145.912L238.019 138.003L252.102 123.026L243.137 108.233L252.649 101.881C254.06 101.434 253.497 102.213 253.875 102.745C257.336 107.701 261.398 115.656 265.253 119.796C270.325 125.238 279.521 130.187 285.109 135.482H285.102ZM105.882 22.4699C98.1583 33.6316 81.4697 44.5081 89.6714 59.6319C98.0658 75.1103 126.286 69.1518 124.213 49.0252C123.326 40.4073 110.546 29.8083 105.882 22.4699ZM73.7074 43.4135C67.1013 42.3266 57.8127 44.2152 50.8829 43.4135C53.7504 57.3811 65.6367 66.9549 79.6814 68.1265C79.1957 65.313 77.1453 63.0005 76.282 60.2948C74.5707 54.9529 74.4782 50.1583 75.6268 44.6777C75.5266 44.2306 74.0543 43.4752 73.7074 43.4135ZM160.881 43.4135H138.057C137.633 43.4135 136.384 44.5158 135.428 44.1689C137.486 48.9635 136.916 53.4806 135.837 58.4063L132.083 68.1265C146.351 66.6543 157.528 57.4119 160.881 43.4135ZM112.989 129.501H136.561C144.994 129.501 156.31 117.745 159.209 110.237C159.818 108.649 161.429 105.736 159.756 104.795H141.048C139.552 104.795 133.278 106.568 131.489 107.208C122.602 110.415 114.038 120.081 112.989 129.493V129.501ZM98.775 160.935C97.3721 151.739 91.2593 143.784 83.073 139.591C81.4543 138.758 75.8349 136.238 74.4551 136.238H50.8829C52.7792 144.979 58.7609 153.35 66.8392 157.328C68.8357 158.307 76.3745 160.943 78.1936 160.943H98.775V160.935ZM74.8328 370.526V212.959L62.484 200.618L50.1352 212.959V370.526H74.8328ZM133.201 370.526C121.877 356.165 121.245 338.212 132.145 323.428C133.463 321.639 136.538 319.774 136.931 317.731V213.714L124.498 200.649L112.257 212.196V370.51H133.208L133.201 370.526ZM198.298 285.194V212.211L186.057 200.664L173.608 212.959V288.933C181.401 285.896 189.911 282.658 198.305 285.186L198.298 285.194ZM38.1641 235.044H25.4453V247.022H38.1641V235.044ZM99.5227 235.044H87.5516V247.022H99.5227V235.044ZM161.629 235.044H148.91V247.022H161.629V235.044ZM222.995 235.044H211.024V247.022H222.995V235.044ZM99.5227 259.741H87.5516V296.418H99.5227V259.741ZM161.629 259.741H148.91V311.387L157.721 308.967C157.266 306.955 161.637 301.713 161.637 301.282V259.741H161.629ZM291.091 309.144C291.091 298.46 296.171 288.447 303.633 281.086C289.603 263.102 260.358 273.686 260.412 296.418H247.693L249.173 285.21C237.672 282.427 226.765 286.505 220.367 296.433C222.433 300.711 225.724 304.373 227.32 308.944C228.815 313.206 228.746 316.883 229.732 321.123H217.014C216.382 295.184 181.509 287.245 170.617 310.639C186.589 313.993 198.768 329.456 198.305 345.828H186.334C185.224 325.247 161.991 313.785 145.572 327.135C129.539 340.17 136.546 366.88 156.842 370.472C222.81 369.994 289.064 371.759 354.87 369.578C379.467 359.981 375.505 326.619 350.214 321.123C355.325 310.146 353.375 297.512 343.731 289.827C327.359 276.784 303.448 288.463 303.825 309.159H291.106L291.091 309.144ZM38.1641 309.144H25.4453V321.123H38.1641V309.144ZM99.5227 309.144H87.5516V321.123H99.5227V309.144ZM99.5227 333.849H87.5516V370.526H99.5227V333.849Z" fill="black"/>
<path d="M13.4665 383.252H0.747742V370.526H12.3488L13.4665 371.651V383.252Z" fill="black"/>
<path d="M371.158 259.741H337.11C325.956 259.741 309.799 244.409 309.799 233.17V222.317H343.099C353.668 222.317 371.158 236.454 371.158 247.392V259.741ZM357.684 247.022C357.422 242.528 348.387 235.044 344.587 235.044H323.258C323.929 239.406 332.339 247.022 336.355 247.022H357.684Z" fill="black"/>
</g>
<defs>
<clipPath id="clip0_52_75">
<rect width="384" height="384" fill="white"/>
</clipPath>
</defs>
</svg>
