<svg width="384" height="384" viewBox="0 0 384 384" fill="none" xmlns="http://www.w3.org/2000/svg">
<g clip-path="url(#clip0_108_317)">
<path d="M231.3 0C234.8 1.18 238.99 1.11 242.68 1.71C259.71 4.52 300.16 15.65 300.16 37.8V53.89H333.47C333.91 53.89 338.39 55.92 339.19 56.4C348.58 62.07 350.93 73.85 344.3 82.69C342.39 85.24 336.55 89.82 333.47 89.82H300.16C299.01 98.07 301.22 95.95 305.35 99.22C317.99 109.22 321.3 126.49 315.26 141.22C310.75 152.22 298.22 159.26 288.38 164.87C286.71 184.39 278.53 201.93 264.37 215.34L264.32 234.55C264.71 235.68 268.51 236.77 269.82 237.28C313.62 254.46 365.02 258.68 380.44 311.55L383.98 327.84V379.49C381.01 384.54 374.28 384.82 372.16 378.96C370.62 351.9 376.79 324.76 362.58 300.21C351.5 281.06 333.15 270.4 312.11 264.97V308.76C312.11 311.6 316.87 317.77 319.24 319.59C325.84 324.66 332.65 321.05 335.9 327.63L336.02 378.33C334.98 384.96 325.17 384.94 324.13 378.33L324.01 334.66C307.5 331.3 298.26 315.78 300.14 299.4L281.17 299.37C277.18 307.35 270.55 312.5 262.46 316C238.67 326.29 187.27 326.56 164.63 313.26C159.53 310.26 153.79 305.19 151.92 299.4H132.46C132.28 301.68 132.76 304.24 132.42 306.47C131.39 313.09 121.36 313.39 120.47 305.78C120.06 302.28 119.33 287.42 124.6 287.42H150.42V255.23L102.6 273.28L102.53 323.74C102.48 326.24 100.66 328.66 98.23 329.19C92.9 330.35 78.69 321.42 72.57 320.36V379.12C72.57 380.68 69.34 382.93 67.66 383.19C61.59 384.14 43.47 383.86 36.98 383.27C34.84 383.08 30.65 381.59 30.65 379.12V320.36C24.16 321.03 2.63 336.42 0.750001 324.43L0.720001 215.95C2.65 194.32 23.77 175.34 41.86 165.77C52.01 160.41 51.79 160.64 61.84 166.03C76.81 174.06 102.51 195.93 102.51 214.44V260.48L168.43 235.32L168.23 215.35C153.74 201.99 145.95 184.53 144.22 164.88C134.37 159.1 121.91 152.37 117.34 141.23C111.3 126.49 114.61 109.22 127.25 99.23C131.38 95.96 133.59 98.08 132.44 89.83H99.13C98.69 89.83 94.21 87.8 93.41 87.32C81.56 80.17 81.57 63.56 93.41 56.41C94.21 55.92 98.69 53.9 99.13 53.9H132.44V37.81C132.44 19.09 161.87 8.61 176.44 4.71L201.3 0.01H231.24L231.3 0ZM288.19 53.89V38.54C288.19 35.18 283.25 29.5 280.5 27.51C251.24 6.4 183.63 7.39 153.51 26.62C150.2 28.73 144.47 34.49 144.47 38.54V53.89H236.17C240.27 53.89 243.08 64.62 235.38 65.82L101.48 65.91C94.51 67.63 95.35 75.48 101.59 77.68L329.77 77.87C337.31 77.96 338.31 68.35 331.63 66.23L263.16 65.82C255.46 64.62 258.26 53.89 262.37 53.89H288.19ZM206.6 89.82H144.47C142.72 98.44 147.51 96.78 151.61 101.02C153.64 103.11 155.39 108.7 155.88 109.11C158.16 111.03 174.17 111.09 177.71 110.7C189.35 109.41 201.77 100.44 206.61 89.82H206.6ZM288.19 89.82H226.06C230.49 99.28 240.38 107.41 250.61 109.81C253.69 110.53 259.36 111.54 262.37 111.53C264.14 111.53 275.95 109.83 276.79 109.11C277.41 108.59 277.69 106.13 278.33 105.03C280.57 101.16 283.48 97.93 288.11 97.22L288.2 89.82H288.19ZM156.44 122.01V168.05C156.44 198.35 190.91 223.21 219.73 221.61C246.49 220.12 276.21 195.3 276.21 167.31V122.02C255.65 125.66 236.04 121.56 221.93 105.56C220.54 104.6 217.22 97.72 215.96 98.06C215.54 98.17 212.14 103.93 211.06 105.15C196.73 121.46 177.45 125.7 156.44 122.01ZM144.47 151.2V111.9C144.47 111.48 142.77 109.32 142.21 108.92C136.31 104.8 130.5 111.58 128.38 116.77C122.6 130.95 130.35 146.48 144.47 151.2ZM288.19 151.2C301.58 145.99 309.93 130.66 304.28 116.77C302.17 111.58 296.35 104.8 290.45 108.92C289.89 109.31 288.19 111.48 288.19 111.9V151.2ZM90.57 314.39V215.21C90.57 213.6 87.44 206.25 86.47 204.34C79.71 191.03 64.84 181.16 51.9 174.58C38.68 180.77 23.68 191.09 16.83 204.34C15.86 206.22 12.73 213.62 12.73 215.21V314.39L30.59 307.55L31.03 241.74C35.64 218.92 67.67 218.93 72.28 241.74L72.72 307.55L90.58 314.39H90.57ZM252.26 223.81C230.72 236.79 201.93 236.86 180.4 223.81V243.65C180.4 246.45 183.36 255.23 184.76 258C196.65 281.55 235.98 281.6 247.9 258C249.3 255.23 252.26 246.45 252.26 243.65V223.81ZM60.63 329.36V243.65C60.63 240.25 54.8 236.4 51.3 236.51C48.12 236.61 42.66 240.57 42.66 243.65V329.36H60.62H60.63ZM263.49 247.76C256.39 300.96 176.29 300.98 169.16 247.76C166.9 249.47 162.37 249.03 162.39 252.58C163.39 265.37 161.21 279.75 162.39 292.33C163.31 302.08 178.89 307.01 187.12 308.77C206.21 312.86 248.23 313.58 264.24 301.3C266.65 299.45 269.82 296.11 270.14 292.98L270.24 250.51L263.48 247.76H263.49ZM300.16 260.49L282.2 254.5V287.44H300.16V260.49ZM60.63 341.33H42.67V371.27H60.63V341.33Z" fill="black"/>
<path d="M276.21 353.31H156.44V379.13C156.44 383.23 145.71 386.04 144.51 378.34C143.71 373.25 143.71 351.33 144.51 346.24C145.01 343.05 147.64 341.16 150.79 341.29L283.91 341.49C286.2 342.14 287.77 343.87 288.14 346.24C289.63 355.8 287.26 369.01 288.02 378.97C286.49 385.82 276.2 383.17 276.2 379.13V353.31H276.21Z" fill="black"/>
<path d="M100.85 341.48C105.01 340.57 108.07 342.77 108.56 346.93C109.25 352.84 109.38 372.69 108.5 378.34C107.46 384.96 97.43 385.26 96.55 377.65C95.86 371.7 95.72 351.93 96.61 346.24C96.96 344.03 98.61 341.97 100.85 341.48Z" fill="black"/>
<path d="M196.66 185.78C201.36 184.75 201.87 187.53 205.06 189.04C212 192.33 219.49 192.84 226.58 189.52C230.3 187.77 235.09 182.25 239.14 187.9C245.36 196.56 227.41 202.85 221.1 203.51C212.93 204.37 199 202.13 193.54 195.33C190.98 192.14 192.58 186.68 196.66 185.79V185.78Z" fill="black"/>
<path d="M214.63 149.85C217.36 149.26 220.59 150.16 221.76 152.89C222.66 155 222.76 172.69 222.16 175.37C220.84 181.28 211.19 181.48 210.33 174.05C209.88 170.13 209.8 158.38 210.39 154.62C210.74 152.41 212.39 150.35 214.63 149.86V149.85Z" fill="black"/>
<path d="M193.69 131.9C206.18 129.86 208 148.57 196.4 149.67C184.75 150.78 182.93 133.66 193.69 131.9Z" fill="black"/>
<path d="M235.61 131.9C248.1 129.86 249.92 148.57 238.32 149.67C226.67 150.78 224.85 133.66 235.61 131.9Z" fill="black"/>
</g>
<defs>
<clipPath id="clip0_108_317">
<rect width="384" height="384" fill="white"/>
</clipPath>
</defs>
</svg>
