<svg width="384" height="384" viewBox="0 0 384 384" fill="none" xmlns="http://www.w3.org/2000/svg">
<g clip-path="url(#clip0_52_102)">
<path d="M103.27 -9.76585e-06C116.05 2.69999 127.92 10.09 133.32 22.33C160.93 21.57 180.79 48.91 173.57 75.18C172.41 79.41 169.86 82.96 168.45 87.04C177.12 95.32 180.99 106.4 181.45 118.27C194.01 124.89 202.78 138.77 203.57 153.03C203.85 158.06 202.72 162.1 202.36 166.93C209.15 169.96 216.38 171.97 220.39 178.88H252.94V165.03L255.93 153.44C241.57 151.38 228.42 141.1 222.87 127.74C221.78 125.12 219.26 117.35 219.26 114.88V90.55H193.82V79.32H219.26C217.19 33.58 283.97 27.09 290.26 72.3L291.11 127.97C303.01 128.32 314.23 132.57 322.93 140.68C332.3 149.42 337.46 163.13 342.87 174.63C355.98 202.45 368.41 230.75 380.69 258.81L383.9 274.69C383.69 277.85 384.19 281.31 383.9 284.42C383.48 288.92 378.66 301.47 378.66 302.76V333.82H367.43V300.51C367.43 300.05 370.36 293.8 370.8 291.91C376.58 267.46 366.65 254.67 357.17 234.42C349.26 217.52 342.55 200.03 334.08 183.38L294.29 203.02L283.26 227.46L307.56 287.78V383.22H296.33V290.03L276.12 240.25C270.41 246.23 263.78 249.22 255.54 249.97H187.07C187.74 267.47 175.65 282.87 159.69 288.88C164.59 307.51 151.77 328.64 132.63 332.13C130.88 332.45 121.22 332.04 121.22 333.45V383.23H109.99C109.32 380.59 110.75 377.64 110.74 375.37C110.5 340.9 105.66 303.28 124.65 272.51C125.7 270.8 129.85 266.42 129.13 264.98L123.95 261.3L108.49 275.8C105.26 276.08 95.39 277.28 93.61 274.99C90.03 270.37 87.54 260.61 84.54 255.23C80.39 257.5 75.94 259.54 71.08 259.73C75.8 276.61 82.4 295.01 83.71 312.59C84.57 324.15 83.27 336.42 83.81 348.05H72.58V330.09C50.22 332.54 30.02 312.13 34.41 289.68C14.52 283.51 4.81999 266.38 5.98999 245.89C6.12999 243.41 7.75999 240.05 7.35999 237.82C7.05999 236.13 3.48999 230.7 2.60999 227.54C-2.19001 210.44 3.69999 194.61 16.34 182.85C14.9 175.96 16.62 168.75 18.88 162.22C19.44 160.61 22.23 156.14 22.18 155.31C22.15 154.79 18.16 148.38 17.42 146.11C12.9 132.2 15.8 116.13 25.38 105.05C3.49999 78.67 22.12 38.17 56.18 37.1C58.02 22.83 66.93 9.36999 80.32 3.59999C82.94 2.46999 89.43 0.30999 92.05 -0.0100098H103.28L103.27 -9.76585e-06ZM175.86 250.01H142.56C140.11 247.1 142.18 242.22 141.26 238.59L122.59 170.81L56.63 143.59C43.28 135.1 40.75 117.48 48.26 104.06L110.75 129.5L94.24 66.32C109.51 60.69 126.48 66.01 132.82 81.61L150.81 145.96L191.57 162.45C195.29 146.3 185.25 129.56 169.23 125.67C169.13 121.71 170.17 118.28 169.86 114.18C169.04 103.16 161.24 93.9 151.91 88.71C154.39 84.92 157.52 82.81 159.78 78.63C172.77 54.67 152.53 29.14 126.54 34.4C120.16 13.72 99.58 4.48999 80.58 16.62C63.24 27.69 63.83 49.08 77.11 63.27L69.97 71.86C63.53 65.77 58.83 57.77 56.96 49.11C47.46 48.25 36.98 53.98 31.87 62.21C24.27 74.44 26.49 89.39 35.95 99.93C37.22 101.35 42.24 104.59 41.91 105.91C23.88 116.09 21.47 141.49 36.66 155.34C30.74 161.1 27.52 169.2 26.95 177.42C38.13 172.89 50.62 173.96 61.28 179.39C62.84 180.19 68.9 183.73 68.9 185.27L62.44 193.19C61.07 193.4 56.53 189.47 54.41 188.5C30.46 177.53 5.17999 201.72 13.87 226.05C14.88 228.89 20.1 235.55 20.16 236.9C20.24 238.75 17.54 244.3 17.23 247.41C15.25 267.08 29.99 280.09 48.65 281.47C38.58 299.91 51.31 321.12 72.6 318.89C71.63 298.54 65.22 278.8 59.19 259.49C48.62 256.62 37.8 249.19 35.2 238.07L45.65 234.3C54.42 256.87 83.66 251.43 91.38 230.61L102.53 234.31L93.56 248.13L101.49 265.05L104.44 264.28L124.6 245.54L144.32 264.72C144.6 266.17 139.11 271.9 137.84 273.73C128.19 287.72 121.64 303.84 121.98 321.13C145.58 323.71 156.64 299.15 143.69 280.71C160.68 279.71 176.57 268.24 175.87 250.01H175.86ZM279.14 79.35C282.85 53.69 246.3 42.25 234.1 63.86C232.96 65.88 228.44 79.35 231.62 79.35H279.14ZM139.94 150.45L122.34 86.09C120.25 80.02 114.37 75.33 107.76 75.6L128.72 152.7C132.65 152.12 135.68 149.62 139.94 150.45ZM279.14 90.57H230.5V111.9C230.5 114.8 232.97 123.19 234.33 126.03C239.08 135.91 251.05 142.42 261.8 142.87C265.59 136.17 273.12 132.72 279.92 129.75L279.14 90.57ZM118.23 157.19L114.47 143.37L55.38 119.77C54.79 126.12 58.58 130.95 63.35 134.62L118.23 157.2V157.19ZM329.23 173.6C324.82 159.77 317.92 146.77 303.29 141.64C287.14 135.98 268.68 143.03 265.1 160.74C264.94 161.54 264.21 164.69 265.66 164.67C270.23 149.58 286.11 142.23 299.59 152.08C312.3 161.36 308.07 174.43 302.35 186.38L329.23 173.6ZM190.83 238.78H256.31C260.6 238.78 267.4 234.11 269.55 230.32C276.34 211.8 288.86 192.73 295.21 174.39C299.58 161.77 288.67 153.44 279.14 162.8L251.45 220.06H190.83V238.77V238.78ZM207.29 181.16L154.92 160.19L158.08 173.49L194.59 188.31L196.78 188.27L207.29 181.15V181.16ZM157.01 214.69L144.23 165.25C141.18 158.91 132.76 161.57 133.22 167.96L147.78 220.83C148.73 222.02 148.53 221.31 149.29 220.82C151.68 219.26 153.62 215.51 157 214.69H157.01ZM186.24 208.74L189.02 198.33L161.65 187.14L167.64 209.59C173.78 208.37 180.03 209.05 186.25 208.74H186.24ZM223.76 190.13C212.4 189.25 198.92 196.56 198.32 208.84H223.76V190.13ZM252.94 190.13H234.98V208.84C237.52 208.45 242.52 209.73 244.34 208.1C246.62 206.07 250.89 193.46 252.94 190.12V190.13ZM178.86 220.07C167.5 219.19 154.02 226.5 153.42 238.78H178.86V220.07Z" fill="black"/>
<path d="M335.27 282.95H324.04V383.25H335.27V282.95Z" fill="black"/>
<path d="M378.67 345.08H367.44V383.26H378.67V345.08Z" fill="black"/>
<path d="M83.82 359.3V383.25H72.59V360.42C75.4 358.09 80.27 359.79 83.82 359.3Z" fill="black"/>
<path d="M110.01 203.6H98.78V214.83H110.01V203.6Z" fill="black"/>
<path d="M87.56 214.83H76.33V203.6L86.85 203.93C88.37 204.99 87.18 212.62 87.55 214.83H87.56Z" fill="black"/>
</g>
<defs>
<clipPath id="clip0_52_102">
<rect width="384" height="384" fill="white"/>
</clipPath>
</defs>
</svg>
