<svg width="384" height="384" viewBox="0 0 384 384" fill="none" xmlns="http://www.w3.org/2000/svg">
<g clip-path="url(#clip0_108_293)">
<path d="M-2.19732e-05 222C2.19748 213.982 6.66748 208.162 13.86 204.045C12.1275 195.21 16.1475 188.287 22.3425 182.467C26.955 148.132 5.57998 76.6874 58.1325 72.0074C72.96 70.6874 89.58 72.9524 104.602 72.0074C110.392 74.1974 110.265 81.1274 104.602 83.2274C83.505 85.8899 47.9925 74.4674 36.6075 98.4824C36.0825 99.5849 33.7425 106.192 33.7425 106.867V179.242H65.6175L100.095 140.97C107.625 134.107 116.775 130.965 127.02 132.082C143.212 133.852 157.852 153.802 171.495 161.88C177.405 156.705 183.922 157.74 191.13 156.622C191.67 152.835 194.182 149.197 197.962 148.08C202.23 146.82 224.25 144.217 228.3 144.795C235.425 145.815 235.905 152.325 237.457 152.872C247.305 152.377 257.182 151.597 266.985 152.977C265.612 123.487 298.462 104.872 323.46 120.87C341.715 132.547 345.307 157.755 332.235 174.712C344.445 177.99 349.65 190.792 345.735 202.47L349.905 201.772L350.265 199.882C348.052 170.572 353.1 137.175 350.22 108.352C348.87 94.8374 337.86 84.1199 324.382 83.1899L128.565 83.2574C122.842 82.0874 121.807 75.5174 126.75 72.3599L326.52 72.0599C345.532 74.3474 359.887 89.2124 361.515 108.315L361.485 202.47C372.84 202.47 381.262 211.455 383.992 221.97V239.97C380.992 253.222 369.862 261.6 356.235 260.212C358.47 275.137 352.177 289.552 334.927 287.145C330.127 286.477 320.985 278.932 320.985 274.087V260.212C313.44 259.252 302.392 261.6 295.297 260.01C289.95 258.817 290.047 249.81 297.345 248.947C316.717 246.645 340.567 250.74 360.39 248.992C373.02 247.882 373.89 235.59 372.735 225.337C372.135 219.982 368.677 214.995 363.307 213.765L265.957 213.817L252.727 248.962H272.602C276.435 248.962 279.217 258.142 273.705 259.777C269.49 261.03 249.27 259.462 248.317 260.302C246.24 266.512 244.222 272.842 241.845 278.947C239.992 283.71 238.912 285.585 237.225 290.827C235.755 295.395 229.275 307.245 225.247 309.6C220.192 312.555 206.482 311.265 201.787 307.785C196.32 303.742 195.54 297.465 198.067 291.42C200.28 286.125 206.235 279.592 208.282 274.635C209.842 270.862 210.555 264.352 212.235 260.212H144.36C144.172 260.212 141.705 258.307 141.48 257.79C139.717 253.627 141.51 249.915 145.897 249.007L216.765 248.625L229.485 213.72H19.875C18.555 213.72 14.505 217.365 13.62 218.715C10.7025 223.185 10.68 232.065 11.2425 237.345C11.9325 243.825 17.2575 248.437 23.5875 249C54.375 251.73 89.175 246.907 120.382 248.955C127.087 249.397 128.535 258.39 121.822 260.175L62.985 260.22V274.095C62.985 278.94 53.8425 286.477 49.0425 287.152C31.7925 289.567 25.4325 275.167 27.735 260.212C14.0025 261.645 3.05248 253.252 -0.022522 239.97V221.97L-2.19732e-05 222ZM325.492 165C336.037 145.492 320.535 122.79 298.5 126.757C299.88 136.08 304.057 145.065 310.117 152.265C311.79 154.252 323.767 166.267 325.492 165.007V165ZM316.5 173.992C316.995 173.34 308.002 166.635 307.11 165.772C297.54 156.532 291.022 144.84 287.632 132.007C263.94 152.925 288.15 187.912 316.5 173.992ZM169.5 179.25L168.742 174.382C151.417 164.295 129.3 129.42 107.632 149.257C101.257 155.092 88.2525 169.972 82.875 176.992C82.2975 177.75 81.4275 177.937 81.7575 179.25H100.882C106.875 175.17 114.03 162.165 119.587 158.962C122.865 157.072 124.8 158.467 127.432 160.2C131.167 162.652 148.89 179.257 150.382 179.257H169.507L169.5 179.25ZM225.75 156L202.567 159.06C202.395 168.292 214.687 166.845 220.68 164.797C224.73 163.41 226.282 160.2 225.757 156H225.75ZM282 202.5C280.68 195.855 279.825 189.202 284.115 183.36C281.047 180.487 277.11 177.675 274.515 174.352C272.775 172.117 271.492 168.427 270.015 166.852C264.645 161.107 244.297 164.257 236.737 164.362C233.107 169.852 229.732 174.442 222.93 176.055C214.215 178.117 203.857 178.942 196.837 172.522C195.517 171.315 194.385 168.555 192.967 168.112C191.887 167.782 180.69 168.915 180.322 169.44L184.62 201.24L185.722 202.387L232.747 202.365C235.275 201.502 238.635 184.995 241.47 181.837C245.182 177.712 251.677 180.877 251.22 186.27L221.25 268.867L231.375 272.902L262.447 189.517C273.75 183.285 273.157 194.805 269.985 202.485H281.985L282 202.5ZM116.25 179.25H132.75L124.027 171.802C122.842 171.585 117.307 177.84 116.25 179.25ZM320.047 184.657C317.295 184.897 312.345 187.74 308.55 188.167C303.922 188.685 299.347 187.807 294.765 187.837C290.002 192.412 291.795 201.675 298.867 202.507C305.527 203.295 321.345 203.152 328.17 202.522C338.362 201.585 337.365 187.875 330.052 185.572C329.017 185.25 321.225 184.545 320.055 184.65L320.047 184.657ZM25.875 202.5H173.25L171.315 190.455L34.8825 190.507C28.7925 190.777 24.03 194.887 24.855 201.255L25.8675 202.5H25.875ZM51.75 260.25H39V271.875C39 277.2 51.75 277.2 51.75 271.875V260.25ZM345 260.25H332.25V271.875C332.25 277.2 345 277.2 345 271.875V260.25ZM219.555 280.62C217.852 280.927 216.352 282.652 215.377 284.002C214.402 285.352 208.342 295.912 208.08 296.977C207.87 297.832 207.442 298.297 208.485 298.905C209.767 299.662 218.745 300.51 220.147 299.265C220.575 298.882 225.675 290.1 225.937 289.312C227.49 284.632 225.045 279.645 219.57 280.627L219.555 280.62Z" fill="black"/>
</g>
<defs>
<clipPath id="clip0_108_293">
<rect width="384" height="384" fill="white"/>
</clipPath>
</defs>
</svg>
